<svg width="115" height="33" viewBox="0 0 115 33" fill="none" xmlns="http://www.w3.org/2000/svg">
<rect width="115" height="33" rx="16.5" fill="url(#paint0_radial_516_92)"/>
<rect width="115" height="33" rx="16.5" fill="white" fill-opacity="0.63"/>
<path d="M65.192 18.704C65.192 19.2373 65.0907 19.7173 64.888 20.144C64.6853 20.56 64.3973 20.9227 64.024 21.232C63.6613 21.5307 63.2187 21.76 62.696 21.92C62.184 22.08 61.6187 22.16 61 22.16C60.232 22.16 59.5813 22.0693 59.048 21.888C58.5147 21.696 58.0773 21.472 57.736 21.216V19.424C58.0773 19.712 58.504 19.9787 59.016 20.224C59.5387 20.4693 60.1627 20.592 60.888 20.592C61.6453 20.592 62.2213 20.4213 62.616 20.08C63.0213 19.7387 63.224 19.2693 63.224 18.672C63.224 18.064 63.0373 17.6107 62.664 17.312C62.2907 17.0027 61.7093 16.848 60.92 16.848H59.512V15.232H61C61.544 15.232 61.9867 15.088 62.328 14.8C62.68 14.5013 62.856 14.08 62.856 13.536C62.856 13.0453 62.6907 12.6613 62.36 12.384C62.0293 12.096 61.5547 11.952 60.936 11.952C60.2853 11.952 59.7307 12.0693 59.272 12.304C58.8133 12.5387 58.3867 12.816 57.992 13.136V11.36C58.3653 11.0827 58.7973 10.848 59.288 10.656C59.7893 10.464 60.408 10.368 61.144 10.368C61.6987 10.368 62.2 10.4427 62.648 10.592C63.096 10.7413 63.4747 10.9493 63.784 11.216C64.0933 11.4827 64.3333 11.8027 64.504 12.176C64.6747 12.5493 64.76 12.96 64.76 13.408C64.76 13.7813 64.696 14.112 64.568 14.4C64.4507 14.688 64.2907 14.944 64.088 15.168C63.8853 15.3813 63.6507 15.5573 63.384 15.696C63.128 15.824 62.856 15.9147 62.568 15.968C62.92 16.0107 63.2507 16.1067 63.56 16.256C63.88 16.3947 64.1573 16.5813 64.392 16.816C64.6373 17.04 64.8293 17.312 64.968 17.632C65.1173 17.952 65.192 18.3093 65.192 18.704ZM72.0529 22H70.1329V12.64L66.8689 15.072V13.152L70.3889 10.528H72.0529V22ZM82.9938 15.488C82.9938 16.4693 82.8978 17.3707 82.7058 18.192C82.5244 19.0133 82.2364 19.7173 81.8418 20.304C81.4471 20.8907 80.9458 21.3493 80.3378 21.68C79.7298 22 79.0044 22.16 78.1618 22.16C77.5964 22.16 77.1111 22.1013 76.7057 21.984C76.3004 21.8667 75.9431 21.712 75.6338 21.52V19.872C76.0071 20.1173 76.4018 20.304 76.8178 20.432C77.2444 20.5493 77.6658 20.608 78.0818 20.608C78.5404 20.608 78.9404 20.5227 79.2818 20.352C79.6338 20.1707 79.9324 19.92 80.1778 19.6C80.4231 19.28 80.6204 18.9013 80.7698 18.464C80.9191 18.016 81.0204 17.52 81.0738 16.976C80.4551 17.7333 79.6124 18.112 78.5458 18.112C78.0658 18.112 77.6124 18.0373 77.1858 17.888C76.7698 17.728 76.4018 17.4933 76.0818 17.184C75.7618 16.864 75.5058 16.4693 75.3138 16C75.1324 15.52 75.0418 14.96 75.0418 14.32C75.0418 13.7013 75.1431 13.1467 75.3458 12.656C75.5591 12.1653 75.8418 11.7547 76.1938 11.424C76.5564 11.0827 76.9724 10.8213 77.4418 10.64C77.9218 10.4587 78.4231 10.368 78.9458 10.368C80.2684 10.368 81.2711 10.7947 81.9538 11.648C82.6471 12.4907 82.9938 13.7707 82.9938 15.488ZM78.9778 11.936C78.7111 11.936 78.4551 11.984 78.2098 12.08C77.9751 12.176 77.7671 12.3253 77.5858 12.528C77.4044 12.72 77.2604 12.9653 77.1538 13.264C77.0471 13.552 76.9938 13.8933 76.9938 14.288C76.9938 14.672 77.0418 15.008 77.1378 15.296C77.2444 15.584 77.3831 15.824 77.5538 16.016C77.7351 16.208 77.9324 16.352 78.1458 16.448C78.3698 16.544 78.6044 16.592 78.8498 16.592C79.1378 16.592 79.4044 16.544 79.6498 16.448C79.9058 16.352 80.1298 16.208 80.3218 16.016C80.5138 15.824 80.6631 15.584 80.7698 15.296C80.8764 15.008 80.9298 14.6667 80.9298 14.272C80.9298 13.536 80.7484 12.9653 80.3858 12.56C80.0231 12.144 79.5538 11.936 78.9778 11.936ZM87.8226 22.16C87.2573 22.16 86.7346 22.048 86.2546 21.824C85.7746 21.6 85.3586 21.248 85.0066 20.768C84.6653 20.288 84.3986 19.6747 84.2066 18.928C84.0146 18.1813 83.9186 17.2907 83.9186 16.256C83.9186 15.2213 84.0146 14.336 84.2066 13.6C84.3986 12.8533 84.6653 12.2453 85.0066 11.776C85.3586 11.296 85.7746 10.944 86.2546 10.72C86.7346 10.496 87.2573 10.384 87.8226 10.384C88.388 10.384 88.9053 10.496 89.3746 10.72C89.844 10.944 90.2493 11.2907 90.5906 11.76C90.932 12.2293 91.1986 12.832 91.3906 13.568C91.5826 14.304 91.6786 15.1893 91.6786 16.224C91.6786 17.2587 91.5826 18.1493 91.3906 18.896C91.1986 19.6427 90.932 20.2613 90.5906 20.752C90.2493 21.232 89.844 21.5893 89.3746 21.824C88.9053 22.048 88.388 22.16 87.8226 22.16ZM87.8066 20.608C88.1266 20.608 88.404 20.5387 88.6386 20.4C88.884 20.2507 89.0866 20.0053 89.2466 19.664C89.4066 19.3227 89.5293 18.88 89.6146 18.336C89.7 17.7813 89.7426 17.0933 89.7426 16.272C89.7426 15.4613 89.7 14.784 89.6146 14.24C89.54 13.6853 89.4226 13.2373 89.2626 12.896C89.1026 12.5547 88.9 12.3093 88.6546 12.16C88.42 12.0107 88.1426 11.936 87.8226 11.936C87.5026 11.936 87.22 12.0107 86.9746 12.16C86.7293 12.3093 86.5213 12.5547 86.3506 12.896C86.1906 13.2373 86.068 13.6853 85.9826 14.24C85.8973 14.784 85.8546 15.4613 85.8546 16.272C85.8546 17.0933 85.8973 17.7813 85.9826 18.336C86.068 18.88 86.1906 19.3227 86.3506 19.664C86.5106 20.0053 86.7133 20.2507 86.9586 20.4C87.204 20.5387 87.4866 20.608 87.8066 20.608ZM94.8816 15.712V10.528H97.7936C98.9776 10.528 99.9163 10.8 100.61 11.344C101.314 11.8773 101.666 12.6987 101.666 13.808C101.666 14.384 101.57 14.8747 101.378 15.28C101.186 15.6853 100.914 16.016 100.562 16.272C100.22 16.528 99.8043 16.72 99.3136 16.848C98.823 16.9653 98.2843 17.024 97.6976 17.024H96.8176V18.16H100.034V19.472H96.8176V22H94.8816V19.472H93.6656V18.16H94.8816V17.024H93.6656V15.712H94.8816ZM96.8176 12.096V15.712H97.7136C99.0576 15.712 99.7296 15.0827 99.7296 13.824C99.7296 13.216 99.575 12.7787 99.2656 12.512C98.967 12.2347 98.4763 12.096 97.7936 12.096H96.8176Z" fill="#808080"/>
<path d="M57 16L103 16" stroke="#808080"/>
<defs>
<radialGradient id="paint0_radial_516_92" cx="0" cy="0" r="1" gradientUnits="userSpaceOnUse" gradientTransform="translate(115 -1.96695e-06) rotate(163.989) scale(119.641 63.4397)">
<stop stop-color="#E0B8FF"/>
<stop offset="1" stop-color="#B6B9FF"/>
</radialGradient>
</defs>
</svg>
