<svg width="79" height="33" viewBox="0 0 79 33" fill="none" xmlns="http://www.w3.org/2000/svg">
<rect width="79" height="33" rx="16.5" fill="url(#paint0_radial_516_95)"/>
<path d="M22.56 21.112V25H19.8V21.112H12.6V19.096L19.32 7.792H22.56V18.856H24.648V21.112H22.56ZM19.8 18.856V11.224L15.216 18.856H19.8ZM37.7953 15.232C37.7953 16.704 37.6513 18.056 37.3633 19.288C37.0913 20.52 36.6593 21.576 36.0673 22.456C35.4753 23.336 34.7233 24.024 33.8113 24.52C32.8993 25 31.8113 25.24 30.5473 25.24C29.6993 25.24 28.9713 25.152 28.3633 24.976C27.7553 24.8 27.2193 24.568 26.7553 24.28V21.808C27.3153 22.176 27.9073 22.456 28.5313 22.648C29.1713 22.824 29.8033 22.912 30.4273 22.912C31.1153 22.912 31.7153 22.784 32.2273 22.528C32.7553 22.256 33.2033 21.88 33.5713 21.4C33.9393 20.92 34.2353 20.352 34.4593 19.696C34.6833 19.024 34.8353 18.28 34.9153 17.464C33.9873 18.6 32.7233 19.168 31.1233 19.168C30.4033 19.168 29.7233 19.056 29.0833 18.832C28.4593 18.592 27.9073 18.24 27.4273 17.776C26.9473 17.296 26.5633 16.704 26.2753 16C26.0033 15.28 25.8673 14.44 25.8673 13.48C25.8673 12.552 26.0193 11.72 26.3233 10.984C26.6433 10.248 27.0673 9.632 27.5953 9.136C28.1393 8.624 28.7633 8.232 29.4673 7.96C30.1873 7.688 30.9393 7.552 31.7233 7.552C33.7073 7.552 35.2113 8.192 36.2353 9.472C37.2753 10.736 37.7953 12.656 37.7953 15.232ZM31.7713 9.904C31.3713 9.904 30.9873 9.976 30.6193 10.12C30.2673 10.264 29.9553 10.488 29.6833 10.792C29.4113 11.08 29.1953 11.448 29.0353 11.896C28.8753 12.328 28.7953 12.84 28.7953 13.432C28.7953 14.008 28.8673 14.512 29.0113 14.944C29.1713 15.376 29.3793 15.736 29.6353 16.024C29.9073 16.312 30.2033 16.528 30.5233 16.672C30.8593 16.816 31.2113 16.888 31.5793 16.888C32.0113 16.888 32.4113 16.816 32.7793 16.672C33.1633 16.528 33.4993 16.312 33.7873 16.024C34.0753 15.736 34.2993 15.376 34.4593 14.944C34.6193 14.512 34.6993 14 34.6993 13.408C34.6993 12.304 34.4273 11.448 33.8833 10.84C33.3393 10.216 32.6353 9.904 31.7713 9.904ZM50.9906 15.232C50.9906 16.704 50.8466 18.056 50.5586 19.288C50.2866 20.52 49.8546 21.576 49.2626 22.456C48.6706 23.336 47.9186 24.024 47.0066 24.52C46.0946 25 45.0066 25.24 43.7426 25.24C42.8946 25.24 42.1666 25.152 41.5586 24.976C40.9506 24.8 40.4146 24.568 39.9506 24.28V21.808C40.5106 22.176 41.1026 22.456 41.7266 22.648C42.3666 22.824 42.9986 22.912 43.6226 22.912C44.3106 22.912 44.9106 22.784 45.4226 22.528C45.9506 22.256 46.3986 21.88 46.7666 21.4C47.1346 20.92 47.4306 20.352 47.6546 19.696C47.8786 19.024 48.0306 18.28 48.1106 17.464C47.1826 18.6 45.9186 19.168 44.3186 19.168C43.5986 19.168 42.9186 19.056 42.2786 18.832C41.6546 18.592 41.1026 18.24 40.6226 17.776C40.1426 17.296 39.7586 16.704 39.4706 16C39.1986 15.28 39.0626 14.44 39.0626 13.48C39.0626 12.552 39.2146 11.72 39.5186 10.984C39.8386 10.248 40.2626 9.632 40.7906 9.136C41.3346 8.624 41.9586 8.232 42.6626 7.96C43.3826 7.688 44.1346 7.552 44.9186 7.552C46.9026 7.552 48.4066 8.192 49.4306 9.472C50.4706 10.736 50.9906 12.656 50.9906 15.232ZM44.9666 9.904C44.5666 9.904 44.1826 9.976 43.8146 10.12C43.4626 10.264 43.1506 10.488 42.8786 10.792C42.6066 11.08 42.3906 11.448 42.2306 11.896C42.0706 12.328 41.9906 12.84 41.9906 13.432C41.9906 14.008 42.0626 14.512 42.2066 14.944C42.3666 15.376 42.5746 15.736 42.8306 16.024C43.1026 16.312 43.3986 16.528 43.7186 16.672C44.0546 16.816 44.4066 16.888 44.7746 16.888C45.2066 16.888 45.6066 16.816 45.9746 16.672C46.3586 16.528 46.6946 16.312 46.9826 16.024C47.2706 15.736 47.4946 15.376 47.6546 14.944C47.8146 14.512 47.8946 14 47.8946 13.408C47.8946 12.304 47.6226 11.448 47.0786 10.84C46.5346 10.216 45.8306 9.904 44.9666 9.904ZM55.6271 15.568V7.792H59.9951C61.7711 7.792 63.1791 8.2 64.2191 9.016C65.2751 9.816 65.8031 11.048 65.8031 12.712C65.8031 13.576 65.6591 14.312 65.3711 14.92C65.0831 15.528 64.6751 16.024 64.1471 16.408C63.6351 16.792 63.0111 17.08 62.2751 17.272C61.5391 17.448 60.7311 17.536 59.8511 17.536H58.5311V19.24H63.3551V21.208H58.5311V25H55.6271V21.208H53.8031V19.24H55.6271V17.536H53.8031V15.568H55.6271ZM58.5311 10.144V15.568H59.8751C61.8911 15.568 62.8991 14.624 62.8991 12.736C62.8991 11.824 62.6671 11.168 62.2031 10.768C61.7551 10.352 61.0191 10.144 59.9951 10.144H58.5311Z" fill="#2E2C21"/>
<defs>
<radialGradient id="paint0_radial_516_95" cx="0" cy="0" r="1" gradientUnits="userSpaceOnUse" gradientTransform="translate(79 -1.96695e-06) rotate(157.329) scale(85.6154 60.9002)">
<stop stop-color="#E0B8FF"/>
<stop offset="1" stop-color="#B6B9FF"/>
</radialGradient>
</defs>
</svg>
